<?xml version="1.0" encoding="utf-8"?>
<!-- Generator: Adobe Illustrator 16.0.3, SVG Export Plug-In . SVG Version: 6.00 Build 0)  -->
<!DOCTYPE svg PUBLIC "-//W3C//DTD SVG 1.1//EN" "http://www.w3.org/Graphics/SVG/1.1/DTD/svg11.dtd">
<svg version="1.1" id="Ebene_1" xmlns="http://www.w3.org/2000/svg" xmlns:xlink="http://www.w3.org/1999/xlink" x="0px" y="0px"
	 width="190.75px" height="212px" viewBox="0 0 190.75 212" enable-background="new 0 0 190.75 212" xml:space="preserve">
<g>
	<defs>
		<rect id="SVGID_1_" y="0.035" width="190.776" height="211.965"/>
	</defs>
	<clipPath id="SVGID_2_">
		<use xlink:href="#SVGID_1_"  overflow="visible"/>
	</clipPath>
	<path clip-path="url(#SVGID_2_)" fill="#B12423" d="M138.983,182.106c-9.203-6.195-20.725-13.653-30.232-17.485
		c-3.904-1.43-5.814-2.315-10.21-2.615c-7.305-0.229-15.739,0.065-17.859,2.186c-1.795,1.064-0.98,16.154-0.33,23.09
		c0.165,2.529,1.945,2.205,2.774,2.529c1.391,0.41,4.37,0.69,6.12,2.53c1.629,1.715,2.249,4.494,2.096,7.128
		C109.182,198.54,125.594,192.218,138.983,182.106"/>
	<path clip-path="url(#SVGID_2_)" fill="#B12423" d="M63.396,79.921c7.97,6.645,23.1,6.435,34.85,1.685
		c-0.75-10.085-2.39-21.33-5.939-29.93c-4.955,3.635-10.99,6.37-20.851,6.745c-0.16,3.23,0.19,5.655-1.305,7.355
		c-2.465,2.805-7.975,2.475-12.84,2.16C58.236,73.196,59.911,77.016,63.396,79.921"/>
	<path clip-path="url(#SVGID_2_)" fill="#B12423" d="M146.852,136.891c5.328,0.954,13.093,3.714,20.798,7.332
		c0.846-2.178,1.604-4.397,2.273-6.657C162.836,137.481,151.114,137.528,146.852,136.891"/>
	<path clip-path="url(#SVGID_2_)" fill="#B12423" d="M59.221,188.341c2.695-2.854,1.5-23.055-5.435-28.85
		c-13-4.56-19.625-8.5-26.115-13.675c-7.35-5.865-13.135-13.44-14.64-25.2c-1.63-12.76,3.345-23.245,8.28-30.84
		c2.615-4.02,5.505-7.635,8.76-11.16c3.28-3.555,5.395-8.23,4.68-15c-5.03,1.975-6.95,2.03-10.91,2.03
		c-2.821,0-5.756-0.781-8.338-2.304C5.733,77.379,0,94.438,0,112.837c0,35.448,21.264,65.926,51.73,79.387
		C54.943,190.573,57.812,189.125,59.221,188.341"/>
	<path clip-path="url(#SVGID_2_)" fill="#B12423" d="M128.111,53.656c0.72,5.545-5.61,9.2-10.92,6.48
		c-3.265-1.67-5.14-5.55-6.24-9.6c-0.885-3.27-1.2-7.725-3-8.88c-0.695,2.425-1.43,4.81-2.76,6.6
		c4.415,9.025,8.649,18.495,11.595,28.62c8.155-2.366,24.576-9.361,39.03-16.538c-3.531-4.637-7.518-8.909-11.894-12.746
		C140.508,52.084,134.799,54.346,128.111,53.656"/>
	<path clip-path="url(#SVGID_2_)" fill="#231F20" d="M175.904,117.838c-0.987,0-2.229-0.667-2.229-2.138
		c0-1.352,1.078-2.174,2.193-2.174c1.26,0,2.173,1.042,2.173,2.156C178.041,116.998,176.996,117.838,175.904,117.838
		 M175.886,111.518c-2.667,0-4.22,2.283-4.22,4.201c0,2.083,1.809,4.165,4.202,4.165c2.228,0,4.165-1.991,4.165-4.184
		C180.033,113.673,178.389,111.518,175.886,111.518 M178.212,56.169c1.579,0.017,2.217,1.291,2.217,2.217
		c0,1.125-0.894,2.215-2.233,2.2c-1.555-0.016-2.217-1.29-2.208-2.2C175.997,57.29,176.855,56.155,178.212,56.169 M178.187,62.77
		c2.44,0,4.404-2.11,4.404-4.395c0-2.04-1.575-4.381-4.396-4.381c-2.167,0-4.379,1.754-4.379,4.381
		C173.816,61.082,176.128,62.77,178.187,62.77 M172.141,131.668c-1.315,0-2.174-1.101-2.174-2.21c0-1.078,0.822-2.229,2.174-2.229
		c1.389,0,2.266,1.099,2.266,2.229C174.406,130.518,173.565,131.668,172.141,131.668 M172.141,125.256
		c-2.412,0-4.183,2.138-4.183,4.202c0,2.191,1.936,4.219,4.165,4.219c2.063,0,4.256-1.662,4.256-4.219
		C176.379,127.133,174.463,125.256,172.141,125.256 M181.659,73.262c0,1.151-0.987,2.284-2.338,2.284
		c-1.407,0-2.284-1.133-2.284-2.265c0-0.877,0.621-2.339,2.247-2.339C181.001,70.942,181.659,72.347,181.659,73.262 M175.21,73.281
		c0,2.849,2.667,4.128,4.092,4.128c2.704,0,4.185-2.43,4.185-4.147c0-2.046-1.624-4.11-4.185-4.11
		C177.189,69.152,175.21,70.869,175.21,73.281 M178.206,103.862c-1.535,0-2.394-1.22-2.394-2.356c0-1.06,0.838-2.266,2.375-2.266
		c1.389,0,2.229,1.298,2.229,2.266C180.416,102.708,179.448,103.862,178.206,103.862 M178.188,97.395
		c-2.722,0-4.237,2.156-4.237,4.111c0,2.058,1.589,4.202,4.256,4.202c2.503,0,4.074-2.284,4.074-4.202
		C182.28,99.678,180.782,97.395,178.188,97.395 M179.321,89.668c-1.134,0-2.339-0.804-2.339-2.32c0-1.425,1.133-2.339,2.303-2.339
		c1.277,0,2.338,1.115,2.338,2.32C181.623,88.462,180.673,89.668,179.321,89.668 M179.321,83.219c-2.32,0-4.147,1.933-4.147,4.129
		c0,2.608,2.32,4.147,4.129,4.147c2.301,0,4.11-1.992,4.11-4.184C183.413,85.283,181.75,83.219,179.321,83.219 M183.669,164.916
		c-2.291,0.915-6.369,2.134-8.987,1.229c-1.754-0.606-4.138-2.327-5.333-3.168c6.238-0.743,12.679-1.126,14.204-6.36
		c0.825,0.736,4.801,3.225,4.68,4.199C187.983,162.817,185.032,164.372,183.669,164.916 M179.593,173.417
		c-0.002,2.671-8.458,5.358-12.258,4.678c-4.3-0.646-7.059-3.225-9.388-4.443c4.162-0.208,13.723-0.437,16.726-4.435
		C176.17,170.379,179.758,172.674,179.593,173.417 M169.272,184.816c0.112,2.528-7.871,5.567-12.6,5.04
		c-3.385-0.347-6.514-3.05-8.685-4.415c8.205,0.143,17.198-1.505,16.983-4.479C166.066,181.828,169.235,183.575,169.272,184.816
		 M141.229,180.719c0.647-1.616,0.971-3.556,0.68-5.398c2.716-0.388,6.901-1.704,6.755-4.039c3.551,1.905,6.632,3.48,10.529,5.854
		c0.983,0.601,3.056,1.53,2.88,2.761c-0.38,2.665-9.533,3.573-17.546,3.021C143.422,182.142,142.396,181.432,141.229,180.719
		 M139.031,179.103c-0.905-0.517-2.337-1.537-2.757-1.796c0.66-1.342,0.597-3.426,0.179-5.481c5.267-0.968,6.328-2.613,6.619-3.615
		c0.717,0.394,2.21,1.146,3.136,1.745c0.313,1.798-4.213,3.432-7.08,3.523C139.748,175.141,140.001,177.777,139.031,179.103
		 M133.586,175.587c-0.84-0.484-1.883-1.201-2.953-1.811c0.846-1.516,0.433-4.151-0.24-5.52c3.051,0.601,6.828-0.79,6.797-3.15
		c0.97,0.485,2.364,1.248,3.361,1.811c-0.775,2.295-4.414,3.231-7.323,2.973C133.945,171.359,134.59,174.046,133.586,175.587
		 M127.977,172.089c-6.594-4.267-18.975-10.197-24.71-11.547c2.024-0.114,4.986-0.827,5.346-1.901
		c7.207,2.294,11.964,4.851,18.072,8.276C128.624,168.21,128.915,169.923,127.977,172.089 M100.836,159.249
		c-3.547,0-5.511-0.039-7.739-0.608c1.409-0.558,3.031-2.12,3.548-2.83c2.694,0.865,7.201,2.006,9.566,2.221
		C105.638,158.783,103.81,159.321,100.836,159.249 M81.306,155.56c3.516-1.851,5.462-4.367,6.367-8.063
		c2.293,0.867,5.284,1.889,8.014,2.839c-0.161,2.521-0.775,5.333-5.56,7.725C89.416,158.061,83.241,156.24,81.306,155.56
		 M38.543,150.102c4.106-7.014,6.268-16.429,7.207-26.609c6.602,19.234,22.797,31.59,43.175,36.488
		C69.026,163.015,49.128,156.453,38.543,150.102 M82.311,192.015c-1.198,1.368-2.164,3.904-1.103,6.779
		c-0.937,0.809-1.53,1.282-2.405,2.032c-0.408-4.406-4.485-4.828-5.548-5.141c-0.081-4.895-0.163-27.087-0.489-32.716
		c1.646,0.086,2.958,0.148,4.333,0.148c0,6.771-0.172,21.309,0.888,25.796C78.477,190.954,80.679,191.933,82.311,192.015
		 M84.514,192.26c2.448-0.165,5.288,2.049,5.187,5.809c-1.398,0.7-5.301,1.354-6.598,0.889
		C81.599,196.701,82.761,193.079,84.514,192.26 M76.181,202.083c-2.437,1.828-5.516,3.654-10.187,6.249
		c1.454-1.983-1.795-4.895-6.534-3.879c2.976-1.785,7.234-3.795,11.238-6.161C73.677,196.735,77.941,199.443,76.181,202.083
		 M63.833,208.981c-3.224,1.472-7.222,1.309-9.914-0.813c2.765-1.617,3.713-1.889,5.676-2.227
		C62.574,205.4,65.214,207.364,63.833,208.981 M52.042,207.271c-2.603,0.453-5.402,0.512-7.343-0.652
		c3.003-3.86,10.634-6.084,10.072-1.45C54,205.878,52.79,206.539,52.042,207.271 M39.15,201.135
		c2.37-2.978,11.238-3.858,8.395,0.542l-1.354,0.745C43.686,202.76,40.301,202.625,39.15,201.135 M58.958,190.511
		c1.06-0.409,1.655-0.781,2.441-0.781c1.208-0.087,2.657,3.007,1.005,3.917c-4.487,2.365-8.92,4.928-12.625,7.219
		c1.625-2.505-1.664-3.987-3.965-3.446C49.368,195.539,57.557,191.024,58.958,190.511 M52.758,201.068
		c3.994-2.099,8.115-4.584,10.425-5.484c2.911-1.421,7.176,0.609,5.421,1.896c-3.823,2.025-8.104,4.453-11.667,6.446
		C57.429,202.625,55.33,200.323,52.758,201.068 M58.977,160.604c3.372,0.765,6.872,1.515,9.872,1.876
		c1.877,5.304,1.795,24.988,1.795,32.636c-1.142-1.714-4.406-2.04-5.792-1.958c0.407-1.388-0.496-4.107-2.014-4.896
		C62.839,179.8,62.778,167.557,58.977,160.604 M30.711,145.021c5.3-1.842,8.694-5.057,11.195-8.45
		c-0.953,3.156-3.403,10.293-5.466,12.302C34.817,147.956,32.263,146.362,30.711,145.021 M33.902,129.684
		c4.618-0.128,8.103-2.651,9.586-6.191c0.112,3.453,0.112,2.085-0.376,5.699c-1.172,5.177-6.056,11.819-14.092,13.888
		C30.806,140.46,33.545,133.077,33.902,129.684 M26.759,141.845c-1.834-1.48-3.175-3.104-5.009-5.503
		c3.414-0.58,7.568-1.776,9.652-5.29C30.822,133.778,28.545,138.93,26.759,141.845 M24.734,121.051
		c2.97,0.813,6.455-0.989,7.978-3.751c0,3.93-0.119,6.906-0.774,9.884c-2.311,4.896-6.757,6.698-10.538,6.966
		C22.948,130.537,24.416,125.893,24.734,121.051 M16.387,124.347c2.738,0.179,4.834-1.033,6.144-2.522
		c-0.536,3.93-1.41,7.812-2.898,10.849C18.221,130.627,16.951,127.381,16.387,124.347 M15.433,111.856
		c1.561,0.799,5.252,0.264,6.74-1.345c0.211,1.36,0.84,6.394,0.46,7.945c-0.48,1.956-4.091,4.559-6.96,3.6
		C15.208,119.056,14.949,115.072,15.433,111.856 M19.033,98.896c0.564,0.678,1.138,2.422,1.68,4.321
		c0.469,1.644,1.063,3.794,0.96,4.559c-0.274,2.022-4.441,2.856-5.88,1.681C16.416,105.479,17.698,102.161,19.033,98.896
		 M25.393,88.097c1.067,1.101,2.555,2.887,3.091,4.792c0.239,3.333-5.239,5.715-7.891,3.007
		C21.947,93.05,23.683,90.587,25.393,88.097 M32.533,79.493c1.847,2.178,2.821,3.37,4.227,6.311c1.905,3.334-4.465,8.99-6.847,5.537
		c-0.952-1.905-1.786-3.155-3.155-5.001C27.948,84.554,30.45,81.373,32.533,79.493 M35.093,115.573
		c3.215,1.31,7.144-1.369,8.216-4.465c0.298,2.857,0.476,4.405,0.536,7.978c-1.359,4.821-6.887,9.268-9.466,7.74
		C34.788,123.315,35.201,119.602,35.093,115.573 M42.118,101.165c0.607,2.033,0.505,2.631,0.834,4.941
		c1.012,4.286-5.12,10.24-7.8,6.668c-0.22-2.859-0.431-5.419-0.893-8.037C37.236,106.225,40.63,104.082,42.118,101.165
		 M31.461,94.437c3.513,0.178,6.192-2.144,7.144-4.584c0.774,1.727,2.799,5.894,2.858,8.097c-0.178,3.394-4.703,7.442-7.74,4.167
		C33.282,99.518,32.32,96.618,31.461,94.437 M24.138,106.94c-0.583-2.976-1.611-5.844-2.619-8.395
		c3.512,1.19,6.965-0.715,8.335-2.798c0.794,1.988,1.258,3.045,1.726,5.656C32.295,105.392,26.401,109.083,24.138,106.94
		 M24.436,109.501c3.036,1.011,6.608-1.311,7.859-3.633c0.595,3.215,0.535,4.228,0.595,6.727c-0.119,4.288-5.239,7.682-7.857,5.862
		C25.093,115.396,24.8,112.136,24.436,109.501 M37.153,62.297c3.243-2.437,6.165-5.195,8.28-8.76
		c-0.923,7.725,2.978,12.59,9.24,13.92c0.519,3.961,1.683,7.277,3.36,10.08c-6.253,6.135-11.059,13.702-13.616,24.03
		c-1.831-9.288-5.43-17.504-10.264-23.79C36.565,74.052,37.935,68.474,37.153,62.297 M23.952,62.876
		c-7.58,0-13.408-5.429-13.408-13.805c0-8.373,6.506-13.239,13.352-13.239c6.391,0,11.824,5.318,11.824,11.881
		c0,4.809-3.281,10.184-11.202,10.184c-3.112,0-8.656-2.49-8.656-8.77c0-5.035,3.225-8.486,8.034-8.486
		c3.847,0,7.015,2.659,7.015,6.676c0,3.395-2.376,5.714-5.771,5.714c-1.98,0-4.412-1.075-4.412-4.017
		c0-2.206,1.66-3.383,3.105-3.517c2.049-0.19,2.986,1.443,2.326,2.103c-1.217,1.216-1.584-0.566-2.829,0.679
		c-0.679,0.679,0.274,2.32,1.924,2.32c1.697,0,3.455-1.076,3.507-3.452c0.057-2.602-2.715-4.186-4.922-4.186
		c-2.379,0-5.657,2.072-5.657,6.223c0,4.809,4.243,6.45,6.732,6.45c3.847,0,8.487-1.867,8.487-8.204
		c0-5.256-3.785-9.222-9.562-9.222c-5.94,0-10.523,4.413-10.523,10.58c0,6.822,4.752,11.542,11.145,11.542
		c4.866,0,8.091-1.528,10.807-3.621c4.841-3.733,8.036-11.398,11.704-18.33c3.676-6.949,11.544-17.023,18.53-13.236
		c-6.251,0.184-13.383,8.604-15.92,14.523c-6.193,14.449-9.994,17.023-13.822,19.986C32.734,61.999,28.968,62.876,23.952,62.876
		 M38.233,22.217c0.307-0.006,0.146,0.089,0.12,0.24c-4.389,2.611-6.964,7.035-9.12,11.88c-0.981-0.372-1.603-0.599-2.4-0.72
		C29.042,28.226,32.947,24.531,38.233,22.217 M33.627,36.793c-0.735-0.622-1.358-0.961-2.037-1.47
		c1.754-4.64,5.758-11.872,13.243-13.466C39.379,25.282,36.224,30.51,33.627,36.793 M51.793,21.977
		c-7.542,4.71-11.439,11.99-14.375,20.191c-0.397-1.075-1.043-2.337-1.698-3.281C39.16,31.007,42.674,22.854,51.793,21.977
		 M58.296,22.864c-4.523,1.874-9.248,7.029-12.143,12.073c-2.913,5.075-5.697,11.118-8.541,16.133
		c0.696-1.703,0.979-3.88,0.794-5.485C41.604,36.871,50.501,21.356,58.296,22.864 M66.511,35.952
		c-1.017-0.696-6.328,0.166-9.011,1.968c1.066-1.949,4.554-5.081,6.686-5.081C66.028,32.795,66.335,34.68,66.511,35.952
		 M70.943,34.004c1.009,4.107,2.022,12.831,1.912,17.537c-2.059,0.956-6.618,1.176-7.941-1.287c-0.602-1.12,0.389-2.271,1.47-2.537
		c1.809-0.444,2.172,1.753,3.346,1.655c0.257-2.942-0.552-12.574-1.986-16.618c-0.63-1.777-2.64-2.117-3.978-1.831
		c-2.785,0.594-6.039,3.494-7.833,6.655c-0.726,1.279-1.645,2.749-1.071,3.158c0.631,0.449,3.287-1.487,4.317-1.781
		c-0.754,1.886,1.072,2.994,2.142,2.888c2.034-0.357,2.718-2.595,1.88-3.893c1.07-0.269,2.867-0.404,3.705-0.068
		c0.394,1.798,0.964,5.613,0.833,7.718c-0.702-0.263-1.759,0.058-2.605,0.463c-2.642,1.263-2.367,4.163-1.47,5.625
		c0.992,1.618,2.83,2.059,4.929,2.329c0.136,0.831,0.203,1.892,0.225,2.82c-1.304,0.133-3.171,0.228-5.402,0.079
		c0.039,0.392,0.048,0.822,0.266,1.096c1.127,1.622,3.603,1.297,5.271,1.405c0.704,4.915-1.986,5.99-6,6.24
		c-8.567,0.532-15.875-2.101-15.36-11.4c0.326-5.881,2.764-10.581,5.28-15.6c2.849-5.683,9.14-12.498,13.438-11.639
		C69.252,27.607,70.428,31.908,70.943,34.004 M86.953,27.137v2.28c-4.646,1.222-11.321,0.966-15.6-0.12
		c-0.587-1.257-1.081-1.936-2.04-2.88C73.748,27.833,82.621,28.287,86.953,27.137 M88.578,47.243
		c-2.406,0.991-6.651,3.396-13.648,3.575c0.032-1.101-0.047-2.275-0.079-3.03c4.403,0.314,9.812-1.158,12.594-2.148
		C87.814,46.276,88.232,46.772,88.578,47.243 M88.788,38.057c0.658-1.71,3.42-2.894,5.569-1.535c1.834,1.161,4.375,6.99,2.675,9.455
		c-0.703,1.02-2.665,1.898-4.8,1.2C89.509,46.285,87.604,40.951,88.788,38.057 M93.875,34.417c-1.185-0.482-3.114-0.438-4.78,0.658
		c0.541-5.477-0.231-12.433-0.22-18.155C94.576,19.113,93.926,27.325,93.875,34.417 M122.533,13.24
		c8.678,0,12.216,6.698,11.461,15.376c-0.116,1.323-0.33,2.17-0.33,2.17c-1.18,1.462-2.5,3.536-2.406,5.988
		c0.096,2.498,1.368,6.792,6.792,6.132c0,0-1.038,1.792-4.056,2.782c-2.521,0.828-4.576,1.132-7.081-1.151
		c-5.407-4.928,5.803-24.395-6.332-23.714c-4.367,0.245-9.33,2.656-13.281,4.443c-4.078,1.845-7.7,3.674-10.943,5.33
		c-0.045-0.745-0.106-1.767-0.188-2.641c3.537-1.887,7.628-3.595,11.744-5.566c16.932-8.111,20.714-2.457,21.16,1.868
		c0.425,4.11-0.741,9.006-1.319,13.08c-0.199,1.401-0.369,3.104-0.12,4.08c0.558,2.188,3.604,3.381,5.469,2.01
		c-4.579-0.208-2.891-6.608-2.229-10.29c0.748-4.16,1.391-9.088-0.24-12.6c-3.478-7.486-14.043-4.42-21.542-1.12
		c-4.218,1.857-9.442,4.129-13.112,6.133c-0.142-1.132-0.219-1.481-0.307-2.139C102.776,19.727,114.75,13.24,122.533,13.24
		 M103.435,7.273c-0.683,2.957-2.061,7.806-2.632,10.788c-1.314,0.789-2.587,1.359-4.122,2.105
		C97.883,15.888,101.768,7.229,103.435,7.273 M108.312,2.297c1.131,0.24-0.579,9.537-1.193,12.65
		c-1.277,0.597-2.993,1.361-3.991,1.886C104.399,11.79,106.241,2.581,108.312,2.297 M114.441,7.755
		c0.613,0.395,0.158,3.141-0.264,4.473c-0.85,0.246-2.148,0.79-3.289,1.184C111.459,11.79,113.123,8.243,114.441,7.755
		 M139.229,31.303c4.575-0.047,6.057,4.304,5.612,7.924c-0.849,6.933-5.851,11.497-12.769,12.03
		c-5.995,0.462-8.988-1.702-10.577-6.37c-1.226-3.6-1.12-5.809-0.173-13.172c0.952-7.409-3.997-6.416-8.1-4.418
		c2.839,0.211,3.682,0.316,4.838,1.157c1.263,1.052,1.053,1.894,0.526,5.47c-1.111-3.915-4.783-4.895-8.665-4.37
		c-3.125,0.422-10.423,4.547-13.33,5.853c-0.087-0.833-0.007-1.562-0.094-2.264c1.933-1.084,6.509-3.684,10.565-5.518
		c5.424-2.453,12.175-6.035,15.61-3.962c2.973,1.792,0.095,9.432,0.473,17.073c0.267,5.419,3.961,8.631,9.479,7.782
		c5.173-0.795,9.176-4.812,9.767-9.741c0.279-2.333-0.429-4.408-2.786-4.691c-1.921-0.231-4.15,1.179-3.065,3.301
		c0.76-0.584,0.99-1.32,2.491-1.01c1.729,0.356,1.517,3.699-0.479,4.32c-3.345,1.04-5.316-2.024-5.22-4.111
		C133.569,31.492,137.719,31.319,139.229,31.303 M109.537,34.514c0.181-0.818,0.234-1.768,0.455-2.547
		c10.736-1.294,5.843,13.155,11.55,18.202c-1.021,0.152-2.084,0.699-2.485,1.782c-1.562-1.791-2.018-4.776-2.705-7.774
		C115.391,39.972,114.912,34.097,109.537,34.514 M118.513,57.977c-2.829-1.348-4.872-4.609-5.601-8.901
		c-0.64-3.762-1.354-8.564-4.244-10.18c0.199-0.807,0.347-1.232,0.566-1.933c2.886-0.866,4.115,3.329,4.573,5.676
		c1.313,6.729,2.663,13.569,7.23,13.887c1.382,0.097,2.841-0.764,2.352-1.94c-1.195,1.274-2.892,0.495-2.853-1.093
		c0.109-2.375,5.312-2.344,5.156,1.172C125.55,57.881,121.825,59.554,118.513,57.977 M104.224,45.6
		c-0.965,1.579-3.333,1.184-4.474-0.132c0.412-3.157-0.799-6.553-1.895-8.219c2.973-1.924,6.715-3.988,9.933-4.862
		C107.042,38.219,105.627,42.837,104.224,45.6 M112.583,70.857c5.583,16.666,4.417,26.166,3,27.083
		c-6.609,2.24-45.734,6.803-45.833,3c1.614-6.065,4.599-10.072,8.563-13.803c7.187,0.053,17.755-1.241,22.472-4.095
		c-0.615-12.305-3.32-23.378-6.393-33.225c1.993-0.048,3.459-1.261,4.44-1.92c1.056,0.623,2.103,1.257,3.96,1.08
		C106.666,55.273,110.196,63.731,112.583,70.857 M118.249,99.726c15.339-2.966,29.86-7.464,29.86-7.464
		c7.465-2.25,6.237,5.522-0.717,9.509c-10.941,2.864-21.475,5.216-30.984,6.649C117.442,106.433,119.008,102.449,118.249,99.726
		 M146.439,67.539c8.813-4.854,6.373,6.52,1.158,9.69c-1.95,1.186-21.475,7.875-28.939,9.92c-0.325-2.959-0.492-4.542-1.228-7.465
		C127.491,76.071,137.223,71.83,146.439,67.539 M159.825,60.894c-1.203,3.159,1.044,8.768,4.236,9.893l-11.824,4.718
		c2.309-2.027,4.1-12.632-0.943-10.322L159.825,60.894z M161.993,59.669l2.498-1.273c-1.697,4.289,0.717,9.292,4.599,10.408
		l-2.337,0.904C162.458,68.237,160.862,63.533,161.993,59.669 M166.941,57.076c0.732-0.468,1.949-1.094,2.734-1.509
		c-1.493,5.051,1.272,9.483,4.876,10.972c-1.442,0.712-3.124,1.315-3.124,1.315C167.117,66.629,164.49,61.271,166.941,57.076
		 M178.207,51.844c3.851,0,6.502,3.212,6.502,6.531c0,3.389-2.734,6.5-6.407,6.5c-3.452,0-6.599-2.709-6.599-6.621
		C171.703,54.389,174.995,51.844,178.207,51.844 M185.276,73.281c0,2.21-1.772,5.882-5.992,5.882c-3.58,0-5.864-3.02-5.864-5.901
		c0-2.85,2.21-5.936,5.901-5.919C183.175,67.362,185.276,70.559,185.276,73.281 M185.13,87.311c0,3.398-2.795,5.901-5.827,5.901
		c-2.631,0-5.846-2.055-5.846-5.882c0-3.205,2.627-5.86,5.927-5.843C182.354,81.502,185.13,83.95,185.13,87.311 M184.089,101.506
		c0,2.896-2.271,6.029-5.901,6.029c-3.435,0-6.047-2.723-6.047-6.029c0-3.464,2.926-5.955,6.083-5.955
		C181.585,95.551,184.089,98.436,184.089,101.506 M181.805,115.701c0,3.324-2.887,5.918-5.974,5.918
		c-3.167,0-5.901-2.589-5.901-5.918c0-3.265,2.734-5.938,5.901-5.938C179.338,109.764,181.805,112.668,181.805,115.701
		 M178.078,129.476c0,3.16-2.544,5.883-5.938,5.883c-2.631,0-5.828-2.046-5.828-5.9c0-4.184,3.526-5.901,5.811-5.901
		C175.082,123.557,178.078,125.822,178.078,129.476 M163.857,135.211c-2.883-2.812-3.579-6.238-1.228-10.124l2.788-0.215
		c-0.992,1.468-1.425,3.105-1.425,4.604c0.026,2.058,0.931,4.275,2.356,5.718L163.857,135.211z M158.551,135.212
		c-2.557-2.25-3.295-6.15-0.841-9.729l2.466-0.19c-2.147,3.17-1.434,7.772,1.122,9.92H158.551z M139.869,134.694
		c3.681-1.942,9.153-8.015,4.654-8.015c4.33-0.486,10.642-0.979,10.642-0.979c-2.455,3.681-0.818,7.874,0.716,9.51
		C150.891,135.244,145.654,135.146,139.869,134.694 M155.354,141.968c-0.812,0.695-5.266,3.347-18.184-1.313
		c1.899-0.573,3.655-1.863,3.691-2.938C144.967,138.493,150.506,140.255,155.354,141.968 M161.754,144.457
		c-1.531,2.429-4.636,3.006-8.081,3.52c0.729,2.064,0.729,5.289-1.206,5.755c-1.218-0.537-2.651-1.146-3.368-1.434
		c0.609-0.358,1.254-0.322,1.685-1.074c0.891-1.56,0.113-4.022-0.591-5.167c3.684-0.117,6.213-1.146,8.136-3.022
		C159.211,143.389,160.708,143.914,161.754,144.457 M164.232,145.457c1.059,0.381,1.95,0.929,3,1.319
		c-1.422,2.738-4.522,3.798-8.16,4.32c0.712,2.045,0.202,4.14-1.697,5.071c-1.039-0.466-1.54-0.788-2.508-1.29
		c1.863-0.752,1.971-2.723,1.686-4.861C159.889,149.272,162.632,147.936,164.232,145.457 M151.032,165.497
		c4.161-0.645,7.49-2.584,7.801-5.76c4.796,2.141,9.326,5.153,13.68,8.039c-0.381,2.504-12.049,3.797-18.84,3.24
		c-1.225-0.574-2.486-1.257-3.264-1.772C151.217,168.34,151.379,166.727,151.032,165.497 M126.779,150.901
		c1.469-0.107,4.085-1.576,4.085-2.65c2.304,0.395,14.438,4.318,14.47,5.935c-0.07,1.158-2.36,1.696-4.94,1.123
		C135.704,154.236,130.183,152.084,126.779,150.901 M120.834,154.637c1.067-0.188,3.54-0.797,3.814-1.971
		c2.915,0.744,10.795,3.778,12.251,4.558c1.81,0.97,2.648,3.521,1.261,4.429c-1.133,0.449-1.78,0.223-2.426-0.101
		C131.717,159.543,124.778,156.222,120.834,154.637 M117.633,156.09c1.391,0.064,12.754,5.337,16.485,7.466
		c0.452,0.259,1.356,0.97,0.969,1.875c-1.512,1.744-5.415,0.244-7.454-0.773c-4.601-2.298-10.063-4.98-14.815-6.726
		C114.918,157.705,117.177,157.315,117.633,156.09 M98.146,151.045c4.328,1.387,11.039,3.118,16.917,4.265
		c-1.184,0.967-5.09,1.504-7.991,1.038c-2.266-0.445-5.971-1.358-9.571-2.58C97.986,152.701,97.953,151.658,98.146,151.045
		 M92.368,138.911c2.185,0.896,5.063,2.03,7.664,2.826c1.266,1.937-1.062,5.223-3.391,6.369c-2.619-0.781-4.991-1.841-7.483-2.748
		C90.522,144.508,93.082,141.77,92.368,138.911 M78.853,140.459c2.143-1.012,4.405-2.798,3.989-6.668
		c2.076,1.284,5.536,3.394,6.671,3.854c1.724,2.219-0.773,5.684-2.92,6.611C84.389,143.629,81.253,141.928,78.853,140.459
		 M77.619,142.772c2.484,1.354,4.925,2.533,7.654,3.645c-0.543,3.692-3.743,6.634-6.717,8.023c-3.09-1.175-5.138-2.569-7.803-3.823
		C74.662,149.216,76.909,146.285,77.619,142.772 M68.353,136.337c2.182,1.778,4.583,3.337,6.96,4.92
		c-0.358,3.954-2.995,6.786-6.96,7.68c-2.401-1.319-4.551-2.89-6.36-4.801C65.187,142.281,67.629,140.229,68.353,136.337
		 M65.953,135.377c0.211,3.289-3.305,6.611-5.88,7.08c-2.641-2.32-5.857-6.449-7.897-9.368
		C58.048,137.493,61.894,136.552,65.953,135.377 M56.909,122.997c2.164,3.476,5.338,7.792,8.083,10.688
		c-6.056,1.954-11.038-1.074-13.48-3.711c-1.758-2.149-3.002-4.303-4.07-7.155C50.568,126.123,54.944,125.587,56.909,122.997
		 M53.609,110.87c-0.298,3.869,1.302,7.366,2.407,10.341c-1.965,3.215-8.008,2.352-9.377-2.054c-0.358-2.203-0.77-5.489-0.829-9.062
		C47.238,112.835,52.061,112.835,53.609,110.87 M55.273,99.976c-0.593,1.843-1.367,5.535-1.664,8.214
		c-2.025,3.334-6.668,2.799-7.621-1.607c0.195-4.23,0.893-6.312,2.008-8.902C49.08,99.165,51.942,100.628,55.273,99.976
		 M60.165,91.137c-1.019,1.572-3.007,4.841-3.699,6.276c-3.483,1.59-6.414-0.29-7.673-2.236c1.136-2.704,2.679-5.11,4.112-7.517
		C53.927,89.501,55.973,91.137,60.165,91.137 M65.353,84.137c-1.147,1.547-2.337,2.857-3.6,4.68c-3.619,0.522-6.125-0.955-7.2-3.36
		c1.279-2.281,3.249-3.871,4.92-5.76C61.306,81.304,62.98,83.07,65.353,84.137 M63.913,90.257c1.148-1.852,2.556-3.444,4.08-4.92
		c2.455,0.898,4.634,1.399,6.96,1.56c-1.394,1.806-2.913,3.486-4.08,5.52C67.788,92.885,65.093,92.078,63.913,90.257
		 M67.396,100.856c-3.666,1.439-7.378-0.104-8.403-2.559c0.804-2.237,2.101-3.979,3.24-5.88c1.723,1.517,3.752,2.728,7.08,2.64
		C68.476,96.819,67.867,98.728,67.396,100.856 M69.062,110.157c-0.428-2.415-0.237-4.686,0.104-6.634
		c1.808,1.532,7.157,1.544,8.746,0.907c0.017,2.823,0.713,4.996,1.361,7.187C75.583,113.773,71.166,113.69,69.062,110.157
		 M74.593,126.737c1.874,1.805,3.708,3.651,5.76,5.279c1.08,3.45-1.214,6.101-3.6,7.08c-2.526-1.394-4.729-3.111-6.96-4.8
		C72.709,133.099,74.272,130.853,74.593,126.737 M71.887,124.027c1.994,4.578-1.132,8.681-4.014,8.47
		c-2.884-2.156-5.333-5.791-7.655-8.59C63.849,127.243,70.16,125.933,71.887,124.027 M69.386,112.894
		c2.382,3.514,7.085,2.501,9.391,1.354c0.574,3.027-1.477,7.031-3.431,7.422c-1.522,0.306-2.861-1.202-3.638-2.704
		C70.815,117.239,70.101,114.918,69.386,112.894 M66.793,112.577c0.878,3.722,2.482,6.717,4.2,9.6
		c-3.81,2.982-10.418,1.077-12.362-1.589c-1.111-2.649-2.402-5.135-2.522-8.886C58.253,114.621,63.373,115.454,66.793,112.577
		 M66.646,110.106c-2.975,2.55-8.572,2.788-10.413-1.729c0.293-2.926,1.127-6.142,1.722-7.868c2.56,3.453,6.003,3.46,9.049,2.739
		C66.439,106.065,66.603,108.631,66.646,110.106 M80.708,114.898c1.667,2.707,3.625,5.166,5.045,6.679
		c0.105,3.635-0.396,9.261-4.84,7.827c-1.039-0.788-4.497-3.823-5.93-5.794C79.449,123.135,80.23,118.74,80.708,114.898
		 M114.072,107.657c-4.106,2.397-23.535,4.75-32.159,3.72c-0.771-2.15-1.626-4.134-1.439-7.009
		c11.646-0.521,25.61-1.858,35.424-4.233C116.884,102.165,115.719,106.695,114.072,107.657 M144.121,113.839
		c0,0-12.783,2.557-30.474,4.704c3.067-4.091,3.17-7.363,2.352-7.977c0,0,20.759-3.579,30.78-6.442
		C156.494,101.874,149.029,113.021,144.121,113.839 M149.048,115.332c2.863-0.409,9.05-1.552,9.05-1.552
		c-1.533,2.455-0.9,7.693,1.364,9.283c0,0-9.778,0.787-13.743,1.223C149.113,123.091,153.282,115.946,149.048,115.332
		 M139.621,124.78c0,0-26.178,3.784-29.962,4.5c2.761-3.171,4.295-7.567,3.067-8.488c20.452-2.454,30.866-4.615,30.866-4.615
		C152.915,114.452,146.371,124.677,139.621,124.78 M134.662,134.062c-5.728-1.533-18.635-2.723-23.37-3.164
		c15.547-2.436,27.511-3.561,27.511-3.561C149.541,125.802,139.284,134.134,134.662,134.062 M130.255,139.006
		c-8.599-1.791-17.306-3.01-22.792-3.654c0.205-0.614,0.538-1.72,0.18-2.723c6.198,0.43,15.944,1.576,23.491,3.094
		c2.313,0.465,4.673,0.704,7.435,1.421C138.747,138.433,134.949,140.01,130.255,139.006 M136.382,142.805
		c3.437,1.044,11.243,2.843,12.251,5.893c1.518,4.59-7.05,0.505-8.633-0.072c-2.593-0.945-5.553-2.022-8.025-2.703
		C135.021,145.384,136.741,143.593,136.382,142.805 M126.851,144.273c-6.915-1.721-16.052-3.513-22.815-4.256
		c0.562-0.33,1.74-1.452,2.354-2.373c5.874,0.466,20.749,2.902,27.7,4.657C134.232,143.306,131.223,145.062,126.851,144.273
		 M120.688,148.896c-4.516-1.326-13.146-3.117-18.346-3.978c0.323-0.752,0.57-1.935,0.391-2.723
		c9.176,1.304,18.35,2.723,25.766,5.267C128.607,148.681,124.343,150.078,120.688,148.896 M101.048,147.211
		c6.199,0.788,14.982,2.688,20.823,4.694c-0.574,0.968-4.367,1.649-7.381,0.968c-4.624-1.147-12.123-2.893-15.373-3.979
		C100.002,148.332,100.692,147.793,101.048,147.211 M98.541,129.731c2.367,0.994,3.995,1.42,6.593,2.181
		c0.697,2.66-1.217,6.068-4.142,7.545c-2.594-0.63-5.284-1.687-7.435-2.511C97.369,135.636,98.252,132.912,98.541,129.731
		 M88.007,123.6c2.597,1.91,5.493,3.84,8.076,4.966c0.875,3.874-2.307,7.324-5.639,6.786c-0.772-0.124-5.609-3.018-6.521-3.726
		C86.252,131.446,87.91,127.503,88.007,123.6 M105.569,129.688c-5.932-1.738-10.533-3.987-15.136-7.362
		c4.193,0.613,14.316-0.716,19.532-1.432C113.238,121.508,108.227,129.075,105.569,129.688 M110.833,118.337
		c-1.085,0.761-20.808,3.478-23.262,1.33c-2.139-1.853-3.273-3.783-4.499-6.033c7.465,0.307,19.634-0.613,30.521-3.217h0.24
		C115.181,111.486,113.749,116.293,110.833,118.337 M166.244,112.261l2.327-0.517c-0.522,0.905-0.979,2.824-0.979,3.956
		c0,2.375,1.033,4.467,2.431,5.864c-1.262,0.329-1.97,0.847-1.97,0.847C164.465,120.246,163.687,115.432,166.244,112.261
		 M164.833,122.661l-2.905,0.22c-2.454-2.353-2.979-6.384-1.344-9.554l2.762-0.511C161.403,115.986,162.385,121.017,164.833,122.661
		 M168.213,109.344l-2.356,0.424c-3.11-1.414-4.557-5.95-3.124-9.529l2.559-0.699C163.5,103.074,165.453,107.911,168.213,109.344
		 M170.099,95.957l-3.394,0.895c-3.018-1.744-4.292-6.019-2.451-9.802l2.922-1.179C164.725,89.17,166.799,94.967,170.099,95.957
		 M172.744,108.01c0,0-0.822,0.347-1.316,0.711c-4.092-1.662-5.331-5.729-3.827-9.748l2.875-0.848
		C168.871,101.596,170.003,105.725,172.744,108.01 M169.533,84.976c0.789-0.411,1.476-0.606,2.206-1.026
		c-2.027,4.695,0.566,8.549,2.631,10.084c-1.242,0.511-2.386,1.852-1.915,1.31C168.26,93.129,167.153,88.753,169.533,84.976
		 M174.735,80.168l-2.01,0.767c-2.966-1.227-5.152-5.545-3.673-9.573l2.558-1.096C170.094,73.919,171.647,78.14,174.735,80.168
		 M170.442,81.848l-2.448,0.968c-2.863-1.534-4.854-5.484-3.729-9.575l2.353-0.92C165.187,76.002,167.463,80.477,170.442,81.848
		 M153.324,77.741c2.862-1.33,6.084-2.643,8.59-3.579c-1.022,3.067,0.613,8.181,3.681,9.51c-4.169,1.681-7.893,3.047-13.077,4.65
		C155.892,83.209,157.21,77.741,153.324,77.741 M118.862,89.501c9.306-2.864,19.597-6.474,28.939-9.715
		c8.999-3.682,5.624,5.42,0.511,10.124c0,0-8.522,3.411-29.895,7.808C118.82,95.625,119.083,92.44,118.862,89.501 M152.915,90.932
		l8.888-3.034c-1.841,3.784,0.236,8.483,2.641,9.568c0,0-8.822,2.164-12.244,3.181C156.597,96.25,156.392,90.625,152.915,90.932
		 M151.952,102.98c2.537-0.744,8.626-2.216,8.626-2.216c-1.228,2.352-0.867,7.371,2.686,9.522l-13.826,2.632
		C152.915,110.465,156.43,103.262,151.952,102.98 M71.457,58.421c9.857-0.377,15.894-3.113,20.847-6.744
		c3.555,8.6,5.194,19.845,5.944,29.928c-11.75,4.75-26.88,4.96-34.851-1.682c-3.487-2.906-5.16-6.729-6.084-11.986
		c4.861,0.316,10.374,0.643,12.84-2.16C71.648,64.076,71.295,61.648,71.457,58.421 M74.451,53.222
		c6.957-0.413,11.768-2.206,15.636-4.234c0.214,0.215,0.896,0.614,1.084,0.802c-4.666,3.804-11.319,6.415-19.83,6.161
		c-0.095-0.534-0.17-1.275-0.228-2.054C72.744,53.7,73.333,53.49,74.451,53.222 M86.593,34.337c-3.664,1.174-8.912,1.421-13.44,0.72
		c-0.226-1.275-0.439-1.937-0.81-3.227c4.254,0.877,10.613,0.745,14.472-0.132C86.814,32.532,86.727,33.321,86.593,34.337
		 M74.222,40.271c-0.22-1.226-0.307-1.797-0.469-2.814c4.432,0.677,9.025,0.126,12.579-0.628c-0.124,0.803-0.083,1.881-0.175,2.544
		C83.657,40.425,78.499,40.932,74.222,40.271 M86.201,41.697c0.131,0.745,0.311,1.705,0.442,2.056
		c-2.264,0.896-7.26,2.143-11.977,1.671c-0.063-1.038-0.093-1.523-0.219-2.675C78.096,43.347,83.438,42.618,86.201,41.697
		 M142.263,164.849c-0.634-0.282-2.424-1.229-3.394-1.777c2.715-0.81,2.199-3.588,1.363-5.374c3.47,0.188,7.015-0.368,7.92-3.12
		c0.835,0.417,1.514,0.74,2.451,1.096c0.872,3.199-5.139,4.104-7.014,3.813C144.786,161.749,144.623,163.718,142.263,164.849
		 M147.7,167.704c-0.841-0.388-2.058-1.101-2.948-1.53c2.101-0.841,2.069-2.683,1.841-4.277c3.334-0.546,6.327-1.481,6.823-4.866
		c1.034,0.452,1.906,0.904,3.005,1.454c-1.002,3.588-3.952,4.448-7.788,4.732C148.771,164.627,149.276,167.131,147.7,167.704
		 M169.633,148.097c2.399,1.176,5.729,3.051,8.64,4.92c1.259,0.809,3.007,1.389,2.88,2.88c-0.2,2.362-2.434,2.947-4.499,3.558
		c-3.952,1.168-10.246,1.423-11.829,0.776c-1.4-0.758-3.378-1.872-4.979-2.78c1.262-1.099,2.231-2.585,1.988-4.193
		C165.251,152.355,167.865,150.65,169.633,148.097 M187.062,155.866c-10.473-8.533-29.898-17.132-40.21-18.974
		c4.752,0.711,18.767,0.566,25.307,0.711c4.366,0.097,8.203-3.707,8.203-8.128c0-1.854-0.858-4.293-2.394-5.773
		c3.672-1.078,6.157-4.293,6.157-7.947c0-3.123-1.398-4.868-2.923-6.394c2.375-0.969,5.315-3.617,5.315-7.838
		c0-3.689-2.374-6.064-3.488-6.758c1.242-0.567,4.585-3.015,4.585-7.435c0-2.979-1.881-5.737-3.909-7.016
		c2.521-1.608,3.946-4.293,3.946-7.015c0-2.759-1.583-5.99-4.543-7.457c2.907-2.057,4.039-4.733,4.05-7.467
		c0.024-6.736-7.143-10.986-13.168-7.913c-15.15,9.358-45.174,22.925-57.204,26.413c-2.945-10.124-7.178-19.594-11.594-28.618
		c1.327-1.793,2.063-4.178,2.761-6.6c1.799,1.154,2.113,5.609,3,8.88c1.097,4.049,2.974,7.928,6.239,9.6
		c5.309,2.717,11.639-0.934,10.92-6.48c6.882,0.707,12.74-1.699,16.115-6.459c2.643-3.726,4.765-12.074,0.378-16.272
		c-1.84-1.761-5.942-2.547-8.489-1.226c1.792-13.818-6.72-21.741-19.884-18.043c0.316-2.143,0.744-5.561-1.2-5.76
		c-2.749-0.282-4.581,5.103-5.502,6.463c0.219-1.974,2.675-12.147-0.833-12.323c-1.974-0.099-3.296,2.772-4.298,4.517
		c-5.395,1.316-7.451,9.348-9.887,14.783c-1.597-2.554-3.542-5.297-7.8-4.8c-0.088,3.447,0.134,6.586,0.12,9.96
		c-9.75,2.358-18.735-1.004-26.04-3.12c-7.633-2.211-20.999-2.364-27.12,0.84c-4.519,2.365-7.288,5.989-9.48,11.04
		c-6.125,0-10.231,2.407-13.08,6.12c-2.753,3.588-3.398,7.261-3.398,9.807c0,10.75,8.486,16.464,16.124,16.464
		c3.964,0,5.884-0.057,10.914-2.031c0.712,6.769-1.4,11.446-4.68,15c-3.255,3.526-6.146,7.14-8.76,11.16
		c-4.938,7.592-9.91,18.081-8.28,30.84c1.503,11.761,7.289,19.336,14.64,25.199c6.489,5.177,13.114,9.114,26.114,13.677
		c6.934,5.793,8.127,25.994,5.435,28.85c-4.214,2.344-21.493,10.627-22.035,12.522c-0.812,1.692,4.13,3.723,7.362,3.244
		c-1.187,0.875-2.55,1.952-2.3,3.14c0.349,1.662,4.837,2.407,9.578,2.162c3.804,4.136,11.63,2.523,15.228,0.612
		c4.868-2.586,11.391-6.215,15.229-9.297c3.929,0.213,6.396-0.524,9.056-1.257c0.156-2.635-0.462-5.415-2.094-7.129
		c-1.752-1.84-4.732-2.121-6.119-2.529c-0.829-0.325-2.611,0-2.774-2.529c-0.652-6.935-1.469-22.028,0.326-23.089
		c2.122-2.121,10.556-2.415,17.864-2.189c4.394,0.303,6.304,1.187,10.208,2.619c17.701,7.131,42.389,26.838,46.08,27.554
		c7.272,0.789,15.199-2.862,16.602-5.44c1.602-2.944-0.585-4.126-3.595-6.526c6.271,0.357,12.385-1.894,14.035-5.233
		c1.569-3.176-2.923-5.794-3.99-6.537c2.613-0.295,5.639-0.848,8.081-2.102c1.979-1.017,4.407-2.658,4.789-5.041
		C191.038,159.519,188.651,157.162,187.062,155.866"/>
</g>
</svg>
