<?xml version="1.0" encoding="utf-8"?>
<!-- Generator: Adobe Illustrator 26.0.1, SVG Export Plug-In . SVG Version: 6.00 Build 0)  -->
<svg version="1.1" id="Ebene_1" xmlns="http://www.w3.org/2000/svg" xmlns:xlink="http://www.w3.org/1999/xlink" x="0px" y="0px"
	 viewBox="0 0 109.6 42.6" style="enable-background:new 0 0 109.6 42.6;" xml:space="preserve">
<style type="text/css">
	.st0{fill:#EFA527;}
</style>
<rect y="21.7" class="st0" width="25.2" height="2.4"/>
<g>
	<path class="st0" d="M0,13.1V1h2.3v10.1h3.9v2H0z"/>
	<path class="st0" d="M8.7,2.9c-0.8,0-1.4-0.6-1.4-1.4c0-0.8,0.6-1.4,1.4-1.4s1.4,0.6,1.4,1.4C10.1,2.2,9.5,2.9,8.7,2.9z M7.5,13.1
		V4.2h2.3v8.9H7.5z"/>
	<path class="st0" d="M15.4,13.3c-1.3,0-2.3-0.1-3.3-0.4V0h2.3v3.8c0,0.5-0.1,1.3-0.1,1.7h0c0.4-1,1.5-1.6,2.7-1.6
		c2.1,0,3.3,1.5,3.3,4.2C20.2,11.2,18.4,13.3,15.4,13.3z M16.3,5.9c-1.2,0-1.9,1.4-1.9,2.9v2.5c0.3,0.1,0.7,0.2,1.2,0.2
		c1.3,0,2.2-0.8,2.2-3C17.8,6.8,17.3,5.9,16.3,5.9z"/>
	<path class="st0" d="M26.7,6.2C25,5.9,24.2,7,24.2,9.5v3.6h-2.3V4.2h2.2c0,0.4-0.1,1.2-0.2,1.8h0c0.4-1.1,1.3-2.1,2.8-2L26.7,6.2z"
		/>
	<path class="st0" d="M32.9,13.1c0-0.5,0-1,0.1-1.5l0,0c-0.4,1-1.5,1.7-2.9,1.7c-1.6,0-2.5-1.1-2.5-2.6c0-2.1,2-3.1,5.2-3.1V7.3
		c0-1.1-0.4-1.6-1.6-1.6c-0.8,0-1.9,0.3-2.7,0.6L28,4.6C28.9,4.2,30.2,4,31.4,4C34.2,4,35,5.1,35,7.1v3.7c0,0.7,0,1.6,0.1,2.3H32.9z
		 M32.7,9.1c-2.3,0-2.9,0.6-2.9,1.3c0,0.6,0.4,1,1.1,1c1.1,0,1.9-1.1,1.9-2.2V9.1z"/>
	<path class="st0" d="M42,6.2c-1.7-0.3-2.5,0.7-2.5,3.2v3.6h-2.3V4.2h2.2c0,0.4-0.1,1.2-0.2,1.8h0c0.4-1.1,1.3-2.1,2.8-2L42,6.2z"/>
	<path class="st0" d="M48.2,13.6c-1.2,3.1-2.4,4-4.5,4c-0.4,0-0.9-0.1-1.3-0.1l0.3-2c0.3,0.1,0.8,0.2,1.1,0.2c0.8,0,1.5-0.4,2-1.8
		l0.3-0.8l-3.3-8.9h2.6l1.2,3.4c0.3,0.8,0.5,1.7,0.7,2.5h0c0.2-0.8,0.6-2,0.9-2.8l1.1-3h2.5L48.2,13.6z"/>
</g>
<g>
	<path d="M3.3,39C0.6,39,0,37.5,0,35.9v-5.5h1.6v5.4c0,1.1,0.4,1.8,1.8,1.8c1.3,0,1.8-0.5,1.8-2v-5.3h1.6v5.2
		C6.8,37.9,5.5,39,3.3,39z"/>
	<path d="M12.5,38.8v-4c0-0.6-0.2-1-0.8-1c-0.8,0-1.4,0.9-1.4,2v3H8.7v-6.2h1.5c0,0.3,0,0.8-0.1,1.1h0c0.4-0.7,1.1-1.2,2.1-1.2
		c1.4,0,1.9,0.9,1.9,2v4.4H12.5z"/>
	<path d="M16.8,31.7c-0.6,0-1-0.4-1-1s0.4-1,1-1s1,0.4,1,1C17.8,31.2,17.3,31.7,16.8,31.7z M16,38.8v-6.2h1.6v6.2H16z"/>
	<path d="M22.8,38.8h-1.9l-2.1-6.2h1.7l1,3c0.2,0.6,0.3,1.1,0.4,1.6h0c0.1-0.5,0.2-1,0.4-1.5l1-3h1.7L22.8,38.8z"/>
	<path d="M31,36h-3.9c0,1.1,0.5,1.7,1.7,1.7c0.6,0,1.2-0.1,1.8-0.4l0.2,1.2c-0.7,0.3-1.5,0.4-2.3,0.4c-2,0-3.1-1-3.1-3.2
		c0-1.9,1.1-3.3,3-3.3c1.8,0,2.6,1.2,2.6,2.6C31,35.4,31,35.8,31,36z M28.4,33.7c-0.7,0-1.1,0.5-1.2,1.3h2.3
		C29.5,34.1,29,33.7,28.4,33.7z"/>
	<path d="M35.9,34c-1.2-0.2-1.7,0.5-1.7,2.2v2.5h-1.6v-6.2h1.5c0,0.3,0,0.8-0.1,1.3h0c0.3-0.8,0.9-1.5,2-1.4L35.9,34z"/>
	<path d="M38.5,39c-0.5,0-1-0.1-1.4-0.2l0.1-1.3c0.4,0.2,0.9,0.3,1.3,0.3c0.6,0,1-0.3,1-0.7c0-1.1-2.5-0.5-2.5-2.6
		c0-1.1,0.8-2,2.7-2c0.4,0,0.8,0.1,1.1,0.1l-0.1,1.3c-0.3-0.1-0.7-0.2-1.1-0.2c-0.6,0-0.9,0.3-0.9,0.6c0,1.1,2.6,0.5,2.6,2.6
		C41.2,38.1,40.2,39,38.5,39z"/>
	<path d="M43.5,31.7c-0.6,0-1-0.4-1-1s0.4-1,1-1s1,0.4,1,1C44.5,31.2,44,31.7,43.5,31.7z M42.7,38.8v-6.2h1.6v6.2H42.7z"/>
	<path d="M48.3,39c-1.4,0-1.8-0.5-1.8-2v-3.2h-1.1v-1.2h1.1v-1.9l1.6-0.4v2.3h1.5v1.2h-1.5v2.7c0,0.8,0.2,1,0.7,1
		c0.3,0,0.5,0,0.7-0.1l0.1,1.3C49.3,38.9,48.8,39,48.3,39z"/>
	<path d="M54.3,39.2c-0.8,2.2-1.7,2.8-3.1,2.8c-0.3,0-0.6,0-0.9-0.1l0.2-1.4c0.2,0.1,0.5,0.1,0.8,0.1c0.5,0,1.1-0.3,1.4-1.2l0.2-0.6
		l-2.3-6.2h1.8l0.8,2.4c0.2,0.5,0.4,1.2,0.5,1.7h0c0.1-0.6,0.4-1.4,0.6-2l0.7-2.1h1.7L54.3,39.2z"/>
	<path d="M63.4,39c-1.8,0-2.9-0.9-2.9-3.1c0-1.9,1.3-3.4,3.2-3.4c1.8,0,2.9,1,2.9,3.1C66.6,37.6,65.3,39,63.4,39z M63.6,33.8
		c-0.7,0-1.4,0.6-1.4,1.8s0.5,1.9,1.4,1.9c0.8,0,1.4-0.6,1.4-1.9C65,34.5,64.5,33.8,63.6,33.8z"/>
	<path d="M71.9,31c-0.3-0.1-0.5-0.1-0.8-0.1c-0.7,0-1,0.4-1,1.2v0.5h1.5v1.2h-1.5v5h-1.6v-5h-1.1v-1.2h1.1v-0.5
		c0-1.7,0.8-2.5,2.5-2.5c0.3,0,0.7,0,1,0.1L71.9,31z"/>
	<path d="M75.6,38.8v-1.3l3.1-5c0.2-0.3,0.4-0.5,0.6-0.8c-0.3,0-0.7,0-1.5,0h-2v-1.5h5.5v1.3L78,36.8c-0.1,0.2-0.2,0.4-0.4,0.6
		c0.2,0,0.8,0,1.8,0h1.8v1.5H75.6z"/>
	<path d="M86.6,38.8c0-0.3,0-0.8,0.1-1.1h0c-0.4,0.7-1.1,1.2-2.1,1.2c-1.4,0-1.9-0.9-1.9-2v-4.4h1.6v4c0,0.6,0.2,1,0.8,1
		c0.8,0,1.4-0.9,1.4-2v-3h1.6v6.2H86.6z"/>
	<path d="M93.3,34c-1.2-0.2-1.7,0.5-1.7,2.2v2.5h-1.6v-6.2h1.5c0,0.3,0,0.8-0.1,1.3h0c0.3-0.8,0.9-1.5,2-1.4L93.3,34z"/>
	<path d="M95.4,31.7c-0.6,0-1-0.4-1-1s0.4-1,1-1s1,0.4,1,1C96.4,31.2,95.9,31.7,95.4,31.7z M94.5,38.8v-6.2h1.6v6.2H94.5z"/>
	<path d="M100.5,39c-1.7,0-2.8-0.9-2.8-3c0-1.9,1-3.4,3.2-3.4c0.5,0,1,0.1,1.4,0.2l-0.3,1.4c-0.3-0.1-0.8-0.2-1.2-0.2
		c-1,0-1.4,0.8-1.4,1.9c0,1.1,0.4,1.8,1.5,1.8c0.4,0,0.9-0.1,1.2-0.3l0.2,1.3C101.7,38.9,101.1,39,100.5,39z"/>
	<path d="M107.4,38.8v-4c0-0.6-0.2-1-0.8-1c-0.8,0-1.4,0.9-1.4,2v3h-1.6v-9.2h1.6v2.7c0,0.4,0,0.9-0.1,1.3h0c0.4-0.7,1.1-1.2,2-1.2
		c1.4,0,1.9,0.9,1.9,2v4.4H107.4z"/>
</g>
</svg>
